  0
SECTION
  2
HEADER
  9
$ACADVER
  1
AC1009
  9
$FILLMODE
 70
 0
  9
$SPLFRAME
 70
 1
  9
$EXTMIN
 10
0
 20
0
 30
0.0
  9
$EXTMAX
 10
1058.33
 20
1058.33
 30
0.0
  0
ENDSEC
  0
SECTION
  2
TABLES
  0
TABLE
  2
LAYER
 70
1
  0
LAYER
  2
0
 70
     0
 62
     7
  6
CONTINUOUS
  0
ENDTAB
  0
ENDSEC
  0
SECTION
  2
ENTITIES
  0
LINE
  8
0
 62
     0
 10
351.896
 20
135.371
 30
0.0
 11
352.132
 21
135.362
 31
0.0
  0
LINE
  8
0
 62
     0
 10
352.132
 20
135.362
 30
0.0
 11
352.366
 21
135.336
 31
0.0
  0
LINE
  8
0
 62
     0
 10
352.366
 20
135.336
 30
0.0
 11
352.596
 21
135.289
 31
0.0
  0
LINE
  8
0
 62
     0
 10
352.596
 20
135.289
 30
0.0
 11
352.824
 21
135.225
 31
0.0
  0
LINE
  8
0
 62
     0
 10
352.824
 20
135.225
 30
0.0
 11
353.046
 21
135.143
 31
0.0
  0
LINE
  8
0
 62
     0
 10
353.046
 20
135.143
 30
0.0
 11
353.258
 21
135.045
 31
0.0
  0
LINE
  8
0
 62
     0
 10
353.258
 20
135.045
 30
0.0
 11
353.466
 21
134.929
 31
0.0
  0
LINE
  8
0
 62
     0
 10
353.466
 20
134.929
 30
0.0
 11
353.66
 21
134.8
 31
0.0
  0
LINE
  8
0
 62
     0
 10
353.66
 20
134.8
 30
0.0
 11
353.843
 21
134.654
 31
0.0
  0
LINE
  8
0
 62
     0
 10
353.843
 20
134.654
 30
0.0
 11
354.02
 21
134.494
 31
0.0
  0
LINE
  8
0
 62
     0
 10
354.02
 20
134.494
 30
0.0
 11
354.178
 21
134.32
 31
0.0
  0
LINE
  8
0
 62
     0
 10
354.178
 20
134.32
 30
0.0
 11
354.323
 21
134.136
 31
0.0
  0
LINE
  8
0
 62
     0
 10
354.323
 20
134.136
 30
0.0
 11
354.453
 21
133.94
 31
0.0
  0
LINE
  8
0
 62
     0
 10
354.453
 20
133.94
 30
0.0
 11
354.57
 21
133.733
 31
0.0
  0
LINE
  8
0
 62
     0
 10
354.57
 20
133.733
 30
0.0
 11
354.669
 21
133.519
 31
0.0
  0
LINE
  8
0
 62
     0
 10
354.669
 20
133.519
 30
0.0
 11
354.75
 21
133.299
 31
0.0
  0
LINE
  8
0
 62
     0
 10
354.75
 20
133.299
 30
0.0
 11
354.813
 21
133.072
 31
0.0
  0
LINE
  8
0
 62
     0
 10
354.813
 20
133.072
 30
0.0
 11
354.859
 21
132.842
 31
0.0
  0
LINE
  8
0
 62
     0
 10
354.859
 20
132.842
 30
0.0
 11
354.887
 21
132.607
 31
0.0
  0
LINE
  8
0
 62
     0
 10
354.887
 20
132.607
 30
0.0
 11
354.894
 21
132.372
 31
0.0
  0
LINE
  8
0
 62
     0
 10
354.894
 20
132.372
 30
0.0
 11
354.894
 21
3.30867
 31
0.0
  0
LINE
  8
0
 62
     0
 10
354.894
 20
3.30867
 30
0.0
 11
354.887
 21
3.07303
 31
0.0
  0
LINE
  8
0
 62
     0
 10
354.887
 20
3.07303
 30
0.0
 11
354.859
 21
2.83876
 31
0.0
  0
LINE
  8
0
 62
     0
 10
354.859
 20
2.83876
 30
0.0
 11
354.813
 21
2.60863
 31
0.0
  0
LINE
  8
0
 62
     0
 10
354.813
 20
2.60863
 30
0.0
 11
354.75
 21
2.38125
 31
0.0
  0
LINE
  8
0
 62
     0
 10
354.75
 20
2.38125
 30
0.0
 11
354.669
 21
2.16076
 31
0.0
  0
LINE
  8
0
 62
     0
 10
354.669
 20
2.16076
 30
0.0
 11
354.57
 21
1.94579
 31
0.0
  0
LINE
  8
0
 62
     0
 10
354.57
 20
1.94579
 30
0.0
 11
354.453
 21
1.74184
 31
0.0
  0
LINE
  8
0
 62
     0
 10
354.453
 20
1.74184
 30
0.0
 11
354.323
 21
1.54478
 31
0.0
  0
LINE
  8
0
 62
     0
 10
354.323
 20
1.54478
 30
0.0
 11
354.178
 21
1.36012
 31
0.0
  0
LINE
  8
0
 62
     0
 10
354.178
 20
1.36012
 30
0.0
 11
354.02
 21
1.18787
 31
0.0
  0
LINE
  8
0
 62
     0
 10
354.02
 20
1.18787
 30
0.0
 11
353.843
 21
1.02664
 31
0.0
  0
LINE
  8
0
 62
     0
 10
353.843
 20
1.02664
 30
0.0
 11
353.66
 21
0.880565
 31
0.0
  0
LINE
  8
0
 62
     0
 10
353.66
 20
0.880565
 30
0.0
 11
353.466
 21
0.749653
 31
0.0
  0
LINE
  8
0
 62
     0
 10
353.466
 20
0.749653
 30
0.0
 11
353.258
 21
0.635275
 31
0.0
  0
LINE
  8
0
 62
     0
 10
353.258
 20
0.635275
 30
0.0
 11
353.046
 21
0.536056
 31
0.0
  0
LINE
  8
0
 62
     0
 10
353.046
 20
0.536056
 30
0.0
 11
352.824
 21
0.454752
 31
0.0
  0
LINE
  8
0
 62
     0
 10
352.824
 20
0.454752
 30
0.0
 11
352.596
 21
0.391365
 31
0.0
  0
LINE
  8
0
 62
     0
 10
352.596
 20
0.391365
 30
0.0
 11
352.366
 21
0.34451
 31
0.0
  0
LINE
  8
0
 62
     0
 10
352.366
 20
0.34451
 30
0.0
 11
352.132
 21
0.316949
 31
0.0
  0
LINE
  8
0
 62
     0
 10
352.132
 20
0.316949
 30
0.0
 11
351.896
 21
0.308681
 31
0.0
  0
LINE
  8
0
 62
     0
 10
351.896
 20
0.308681
 30
0.0
 11
3.09507
 21
0.308681
 31
0.0
  0
LINE
  8
0
 62
     0
 10
3.09507
 20
0.308681
 30
0.0
 11
2.85943
 21
0.316949
 31
0.0
  0
LINE
  8
0
 62
     0
 10
2.85943
 20
0.316949
 30
0.0
 11
2.62516
 21
0.34451
 31
0.0
  0
LINE
  8
0
 62
     0
 10
2.62516
 20
0.34451
 30
0.0
 11
2.39503
 21
0.391365
 31
0.0
  0
LINE
  8
0
 62
     0
 10
2.39503
 20
0.391365
 30
0.0
 11
2.16765
 21
0.454752
 31
0.0
  0
LINE
  8
0
 62
     0
 10
2.16765
 20
0.454752
 30
0.0
 11
1.94717
 21
0.536056
 31
0.0
  0
LINE
  8
0
 62
     0
 10
1.94717
 20
0.536056
 30
0.0
 11
1.73357
 21
0.635275
 31
0.0
  0
LINE
  8
0
 62
     0
 10
1.73357
 20
0.635275
 30
0.0
 11
1.52687
 21
0.749653
 31
0.0
  0
LINE
  8
0
 62
     0
 10
1.52687
 20
0.749653
 30
0.0
 11
1.33119
 21
0.880565
 31
0.0
  0
LINE
  8
0
 62
     0
 10
1.33119
 20
0.880565
 30
0.0
 11
1.14653
 21
1.02664
 31
0.0
  0
LINE
  8
0
 62
     0
 10
1.14653
 20
1.02664
 30
0.0
 11
0.972894
 21
1.18787
 31
0.0
  0
LINE
  8
0
 62
     0
 10
0.972894
 20
1.18787
 30
0.0
 11
0.813043
 21
1.36012
 31
0.0
  0
LINE
  8
0
 62
     0
 10
0.813043
 20
1.36012
 30
0.0
 11
0.666972
 21
1.54478
 31
0.0
  0
LINE
  8
0
 62
     0
 10
0.666972
 20
1.54478
 30
0.0
 11
0.537436
 21
1.74184
 31
0.0
  0
LINE
  8
0
 62
     0
 10
0.537436
 20
1.74184
 30
0.0
 11
0.421679
 21
1.94579
 31
0.0
  0
LINE
  8
0
 62
     0
 10
0.421679
 20
1.94579
 30
0.0
 11
0.323839
 21
2.16076
 31
0.0
  0
LINE
  8
0
 62
     0
 10
0.323839
 20
2.16076
 30
0.0
 11
0.241157
 21
2.38125
 31
0.0
  0
LINE
  8
0
 62
     0
 10
0.241157
 20
2.38125
 30
0.0
 11
0.177767
 21
2.60863
 31
0.0
  0
LINE
  8
0
 62
     0
 10
0.177767
 20
2.60863
 30
0.0
 11
0.130914
 21
2.83876
 31
0.0
  0
LINE
  8
0
 62
     0
 10
0.130914
 20
2.83876
 30
0.0
 11
0.104731
 21
3.07303
 31
0.0
  0
LINE
  8
0
 62
     0
 10
0.104731
 20
3.07303
 30
0.0
 11
0.0950846
 21
3.30867
 31
0.0
  0
LINE
  8
0
 62
     0
 10
0.0950846
 20
3.30867
 30
0.0
 11
0.0950846
 21
132.372
 31
0.0
  0
LINE
  8
0
 62
     0
 10
0.0950846
 20
132.372
 30
0.0
 11
0.104731
 21
132.607
 31
0.0
  0
LINE
  8
0
 62
     0
 10
0.104731
 20
132.607
 30
0.0
 11
0.130914
 21
132.842
 31
0.0
  0
LINE
  8
0
 62
     0
 10
0.130914
 20
132.842
 30
0.0
 11
0.177767
 21
133.072
 31
0.0
  0
LINE
  8
0
 62
     0
 10
0.177767
 20
133.072
 30
0.0
 11
0.241157
 21
133.299
 31
0.0
  0
LINE
  8
0
 62
     0
 10
0.241157
 20
133.299
 30
0.0
 11
0.323839
 21
133.519
 31
0.0
  0
LINE
  8
0
 62
     0
 10
0.323839
 20
133.519
 30
0.0
 11
0.421679
 21
133.733
 31
0.0
  0
LINE
  8
0
 62
     0
 10
0.421679
 20
133.733
 30
0.0
 11
0.537436
 21
133.94
 31
0.0
  0
LINE
  8
0
 62
     0
 10
0.537436
 20
133.94
 30
0.0
 11
0.666972
 21
134.136
 31
0.0
  0
LINE
  8
0
 62
     0
 10
0.666972
 20
134.136
 30
0.0
 11
0.813043
 21
134.32
 31
0.0
  0
LINE
  8
0
 62
     0
 10
0.813043
 20
134.32
 30
0.0
 11
0.972894
 21
134.494
 31
0.0
  0
LINE
  8
0
 62
     0
 10
0.972894
 20
134.494
 30
0.0
 11
1.14653
 21
134.654
 31
0.0
  0
LINE
  8
0
 62
     0
 10
1.14653
 20
134.654
 30
0.0
 11
1.33119
 21
134.8
 31
0.0
  0
LINE
  8
0
 62
     0
 10
1.33119
 20
134.8
 30
0.0
 11
1.52687
 21
134.929
 31
0.0
  0
LINE
  8
0
 62
     0
 10
1.52687
 20
134.929
 30
0.0
 11
1.73357
 21
135.045
 31
0.0
  0
LINE
  8
0
 62
     0
 10
1.73357
 20
135.045
 30
0.0
 11
1.94717
 21
135.143
 31
0.0
  0
LINE
  8
0
 62
     0
 10
1.94717
 20
135.143
 30
0.0
 11
2.16765
 21
135.225
 31
0.0
  0
LINE
  8
0
 62
     0
 10
2.16765
 20
135.225
 30
0.0
 11
2.39503
 21
135.289
 31
0.0
  0
LINE
  8
0
 62
     0
 10
2.39503
 20
135.289
 30
0.0
 11
2.62516
 21
135.336
 31
0.0
  0
LINE
  8
0
 62
     0
 10
2.62516
 20
135.336
 30
0.0
 11
2.85943
 21
135.362
 31
0.0
  0
LINE
  8
0
 62
     0
 10
2.85943
 20
135.362
 30
0.0
 11
3.09507
 21
135.371
 31
0.0
  0
LINE
  8
0
 62
     0
 10
3.09507
 20
135.371
 30
0.0
 11
351.896
 21
135.371
 31
0.0
  0
LINE
  8
0
 62
     0
 10
350.587
 20
5.25861
 30
0.0
 11
350.308
 21
5.11665
 31
0.0
  0
LINE
  8
0
 62
     0
 10
350.308
 20
5.11665
 30
0.0
 11
350.086
 21
4.89617
 31
0.0
  0
LINE
  8
0
 62
     0
 10
350.086
 20
4.89617
 30
0.0
 11
349.945
 21
4.61779
 31
0.0
  0
LINE
  8
0
 62
     0
 10
349.945
 20
4.61779
 30
0.0
 11
349.896
 21
4.30773
 31
0.0
  0
LINE
  8
0
 62
     0
 10
349.896
 20
4.30773
 30
0.0
 11
349.945
 21
3.99905
 31
0.0
  0
LINE
  8
0
 62
     0
 10
349.945
 20
3.99905
 30
0.0
 11
350.086
 21
3.72071
 31
0.0
  0
LINE
  8
0
 62
     0
 10
350.086
 20
3.72071
 30
0.0
 11
350.308
 21
3.49884
 31
0.0
  0
LINE
  8
0
 62
     0
 10
350.308
 20
3.49884
 30
0.0
 11
350.587
 21
3.3569
 31
0.0
  0
LINE
  8
0
 62
     0
 10
350.587
 20
3.3569
 30
0.0
 11
350.897
 21
3.30867
 31
0.0
  0
LINE
  8
0
 62
     0
 10
350.897
 20
3.30867
 30
0.0
 11
351.205
 21
3.3569
 31
0.0
  0
LINE
  8
0
 62
     0
 10
351.205
 20
3.3569
 30
0.0
 11
351.484
 21
3.49884
 31
0.0
  0
LINE
  8
0
 62
     0
 10
351.484
 20
3.49884
 30
0.0
 11
351.706
 21
3.72071
 31
0.0
  0
LINE
  8
0
 62
     0
 10
351.706
 20
3.72071
 30
0.0
 11
351.847
 21
3.99905
 31
0.0
  0
LINE
  8
0
 62
     0
 10
351.847
 20
3.99905
 30
0.0
 11
351.896
 21
4.30773
 31
0.0
  0
LINE
  8
0
 62
     0
 10
351.896
 20
4.30773
 30
0.0
 11
351.847
 21
4.61779
 31
0.0
  0
LINE
  8
0
 62
     0
 10
351.847
 20
4.61779
 30
0.0
 11
351.706
 21
4.89617
 31
0.0
  0
LINE
  8
0
 62
     0
 10
351.706
 20
4.89617
 30
0.0
 11
351.484
 21
5.11665
 31
0.0
  0
LINE
  8
0
 62
     0
 10
351.484
 20
5.11665
 30
0.0
 11
351.205
 21
5.25861
 31
0.0
  0
LINE
  8
0
 62
     0
 10
351.205
 20
5.25861
 30
0.0
 11
350.897
 21
5.30821
 31
0.0
  0
LINE
  8
0
 62
     0
 10
350.897
 20
5.30821
 30
0.0
 11
350.587
 21
5.25861
 31
0.0
  0
LINE
  8
0
 62
     0
 10
301.044
 20
5.25861
 30
0.0
 11
300.765
 21
5.11665
 31
0.0
  0
LINE
  8
0
 62
     0
 10
300.765
 20
5.11665
 30
0.0
 11
300.543
 21
4.89617
 31
0.0
  0
LINE
  8
0
 62
     0
 10
300.543
 20
4.89617
 30
0.0
 11
300.401
 21
4.61779
 31
0.0
  0
LINE
  8
0
 62
     0
 10
300.401
 20
4.61779
 30
0.0
 11
300.353
 21
4.30773
 31
0.0
  0
LINE
  8
0
 62
     0
 10
300.353
 20
4.30773
 30
0.0
 11
300.401
 21
3.99905
 31
0.0
  0
LINE
  8
0
 62
     0
 10
300.401
 20
3.99905
 30
0.0
 11
300.543
 21
3.72071
 31
0.0
  0
LINE
  8
0
 62
     0
 10
300.543
 20
3.72071
 30
0.0
 11
300.765
 21
3.49884
 31
0.0
  0
LINE
  8
0
 62
     0
 10
300.765
 20
3.49884
 30
0.0
 11
301.044
 21
3.3569
 31
0.0
  0
LINE
  8
0
 62
     0
 10
301.044
 20
3.3569
 30
0.0
 11
301.353
 21
3.30867
 31
0.0
  0
LINE
  8
0
 62
     0
 10
301.353
 20
3.30867
 30
0.0
 11
301.662
 21
3.3569
 31
0.0
  0
LINE
  8
0
 62
     0
 10
301.662
 20
3.3569
 30
0.0
 11
301.941
 21
3.49884
 31
0.0
  0
LINE
  8
0
 62
     0
 10
301.941
 20
3.49884
 30
0.0
 11
302.162
 21
3.72071
 31
0.0
  0
LINE
  8
0
 62
     0
 10
302.162
 20
3.72071
 30
0.0
 11
302.304
 21
3.99905
 31
0.0
  0
LINE
  8
0
 62
     0
 10
302.304
 20
3.99905
 30
0.0
 11
302.354
 21
4.30773
 31
0.0
  0
LINE
  8
0
 62
     0
 10
302.354
 20
4.30773
 30
0.0
 11
302.304
 21
4.61779
 31
0.0
  0
LINE
  8
0
 62
     0
 10
302.304
 20
4.61779
 30
0.0
 11
302.162
 21
4.89617
 31
0.0
  0
LINE
  8
0
 62
     0
 10
302.162
 20
4.89617
 30
0.0
 11
301.941
 21
5.11665
 31
0.0
  0
LINE
  8
0
 62
     0
 10
301.941
 20
5.11665
 30
0.0
 11
301.662
 21
5.25861
 31
0.0
  0
LINE
  8
0
 62
     0
 10
301.662
 20
5.25861
 30
0.0
 11
301.353
 21
5.30821
 31
0.0
  0
LINE
  8
0
 62
     0
 10
301.353
 20
5.30821
 30
0.0
 11
301.044
 21
5.25861
 31
0.0
  0
LINE
  8
0
 62
     0
 10
251.499
 20
5.25861
 30
0.0
 11
251.222
 21
5.11665
 31
0.0
  0
LINE
  8
0
 62
     0
 10
251.222
 20
5.11665
 30
0.0
 11
251
 21
4.89617
 31
0.0
  0
LINE
  8
0
 62
     0
 10
251
 20
4.89617
 30
0.0
 11
250.858
 21
4.61779
 31
0.0
  0
LINE
  8
0
 62
     0
 10
250.858
 20
4.61779
 30
0.0
 11
250.81
 21
4.30773
 31
0.0
  0
LINE
  8
0
 62
     0
 10
250.81
 20
4.30773
 30
0.0
 11
250.858
 21
3.99905
 31
0.0
  0
LINE
  8
0
 62
     0
 10
250.858
 20
3.99905
 30
0.0
 11
251
 21
3.72071
 31
0.0
  0
LINE
  8
0
 62
     0
 10
251
 20
3.72071
 30
0.0
 11
251.222
 21
3.49884
 31
0.0
  0
LINE
  8
0
 62
     0
 10
251.222
 20
3.49884
 30
0.0
 11
251.499
 21
3.3569
 31
0.0
  0
LINE
  8
0
 62
     0
 10
251.499
 20
3.3569
 30
0.0
 11
251.809
 21
3.30867
 31
0.0
  0
LINE
  8
0
 62
     0
 10
251.809
 20
3.30867
 30
0.0
 11
252.119
 21
3.3569
 31
0.0
  0
LINE
  8
0
 62
     0
 10
252.119
 20
3.3569
 30
0.0
 11
252.397
 21
3.49884
 31
0.0
  0
LINE
  8
0
 62
     0
 10
252.397
 20
3.49884
 30
0.0
 11
252.619
 21
3.72071
 31
0.0
  0
LINE
  8
0
 62
     0
 10
252.619
 20
3.72071
 30
0.0
 11
252.761
 21
3.99905
 31
0.0
  0
LINE
  8
0
 62
     0
 10
252.761
 20
3.99905
 30
0.0
 11
252.809
 21
4.30773
 31
0.0
  0
LINE
  8
0
 62
     0
 10
252.809
 20
4.30773
 30
0.0
 11
252.761
 21
4.61779
 31
0.0
  0
LINE
  8
0
 62
     0
 10
252.761
 20
4.61779
 30
0.0
 11
252.619
 21
4.89617
 31
0.0
  0
LINE
  8
0
 62
     0
 10
252.619
 20
4.89617
 30
0.0
 11
252.397
 21
5.11665
 31
0.0
  0
LINE
  8
0
 62
     0
 10
252.397
 20
5.11665
 30
0.0
 11
252.119
 21
5.25861
 31
0.0
  0
LINE
  8
0
 62
     0
 10
252.119
 20
5.25861
 30
0.0
 11
251.809
 21
5.30821
 31
0.0
  0
LINE
  8
0
 62
     0
 10
251.809
 20
5.30821
 30
0.0
 11
251.499
 21
5.25861
 31
0.0
  0
LINE
  8
0
 62
     0
 10
201.957
 20
5.25861
 30
0.0
 11
201.68
 21
5.11665
 31
0.0
  0
LINE
  8
0
 62
     0
 10
201.68
 20
5.11665
 30
0.0
 11
201.458
 21
4.89617
 31
0.0
  0
LINE
  8
0
 62
     0
 10
201.458
 20
4.89617
 30
0.0
 11
201.315
 21
4.61779
 31
0.0
  0
LINE
  8
0
 62
     0
 10
201.315
 20
4.61779
 30
0.0
 11
201.268
 21
4.30773
 31
0.0
  0
LINE
  8
0
 62
     0
 10
201.268
 20
4.30773
 30
0.0
 11
201.315
 21
3.99905
 31
0.0
  0
LINE
  8
0
 62
     0
 10
201.315
 20
3.99905
 30
0.0
 11
201.458
 21
3.72071
 31
0.0
  0
LINE
  8
0
 62
     0
 10
201.458
 20
3.72071
 30
0.0
 11
201.68
 21
3.49884
 31
0.0
  0
LINE
  8
0
 62
     0
 10
201.68
 20
3.49884
 30
0.0
 11
201.957
 21
3.3569
 31
0.0
  0
LINE
  8
0
 62
     0
 10
201.957
 20
3.3569
 30
0.0
 11
202.267
 21
3.30867
 31
0.0
  0
LINE
  8
0
 62
     0
 10
202.267
 20
3.30867
 30
0.0
 11
202.577
 21
3.3569
 31
0.0
  0
LINE
  8
0
 62
     0
 10
202.577
 20
3.3569
 30
0.0
 11
202.854
 21
3.49884
 31
0.0
  0
LINE
  8
0
 62
     0
 10
202.854
 20
3.49884
 30
0.0
 11
203.076
 21
3.72071
 31
0.0
  0
LINE
  8
0
 62
     0
 10
203.076
 20
3.72071
 30
0.0
 11
203.218
 21
3.99905
 31
0.0
  0
LINE
  8
0
 62
     0
 10
203.218
 20
3.99905
 30
0.0
 11
203.267
 21
4.30773
 31
0.0
  0
LINE
  8
0
 62
     0
 10
203.267
 20
4.30773
 30
0.0
 11
203.218
 21
4.61779
 31
0.0
  0
LINE
  8
0
 62
     0
 10
203.218
 20
4.61779
 30
0.0
 11
203.076
 21
4.89617
 31
0.0
  0
LINE
  8
0
 62
     0
 10
203.076
 20
4.89617
 30
0.0
 11
202.854
 21
5.11665
 31
0.0
  0
LINE
  8
0
 62
     0
 10
202.854
 20
5.11665
 30
0.0
 11
202.577
 21
5.25861
 31
0.0
  0
LINE
  8
0
 62
     0
 10
202.577
 20
5.25861
 30
0.0
 11
202.267
 21
5.30821
 31
0.0
  0
LINE
  8
0
 62
     0
 10
202.267
 20
5.30821
 30
0.0
 11
201.957
 21
5.25861
 31
0.0
  0
LINE
  8
0
 62
     0
 10
152.415
 20
5.25861
 30
0.0
 11
152.137
 21
5.11665
 31
0.0
  0
LINE
  8
0
 62
     0
 10
152.137
 20
5.11665
 30
0.0
 11
151.915
 21
4.89617
 31
0.0
  0
LINE
  8
0
 62
     0
 10
151.915
 20
4.89617
 30
0.0
 11
151.773
 21
4.61779
 31
0.0
  0
LINE
  8
0
 62
     0
 10
151.773
 20
4.61779
 30
0.0
 11
151.725
 21
4.30773
 31
0.0
  0
LINE
  8
0
 62
     0
 10
151.725
 20
4.30773
 30
0.0
 11
151.773
 21
3.99905
 31
0.0
  0
LINE
  8
0
 62
     0
 10
151.773
 20
3.99905
 30
0.0
 11
151.915
 21
3.72071
 31
0.0
  0
LINE
  8
0
 62
     0
 10
151.915
 20
3.72071
 30
0.0
 11
152.137
 21
3.49884
 31
0.0
  0
LINE
  8
0
 62
     0
 10
152.137
 20
3.49884
 30
0.0
 11
152.415
 21
3.3569
 31
0.0
  0
LINE
  8
0
 62
     0
 10
152.415
 20
3.3569
 30
0.0
 11
152.724
 21
3.30867
 31
0.0
  0
LINE
  8
0
 62
     0
 10
152.724
 20
3.30867
 30
0.0
 11
153.034
 21
3.3569
 31
0.0
  0
LINE
  8
0
 62
     0
 10
153.034
 20
3.3569
 30
0.0
 11
153.311
 21
3.49884
 31
0.0
  0
LINE
  8
0
 62
     0
 10
153.311
 20
3.49884
 30
0.0
 11
153.534
 21
3.72071
 31
0.0
  0
LINE
  8
0
 62
     0
 10
153.534
 20
3.72071
 30
0.0
 11
153.676
 21
3.99905
 31
0.0
  0
LINE
  8
0
 62
     0
 10
153.676
 20
3.99905
 30
0.0
 11
153.724
 21
4.30773
 31
0.0
  0
LINE
  8
0
 62
     0
 10
153.724
 20
4.30773
 30
0.0
 11
153.676
 21
4.61779
 31
0.0
  0
LINE
  8
0
 62
     0
 10
153.676
 20
4.61779
 30
0.0
 11
153.534
 21
4.89617
 31
0.0
  0
LINE
  8
0
 62
     0
 10
153.534
 20
4.89617
 30
0.0
 11
153.311
 21
5.11665
 31
0.0
  0
LINE
  8
0
 62
     0
 10
153.311
 20
5.11665
 30
0.0
 11
153.034
 21
5.25861
 31
0.0
  0
LINE
  8
0
 62
     0
 10
153.034
 20
5.25861
 30
0.0
 11
152.724
 21
5.30821
 31
0.0
  0
LINE
  8
0
 62
     0
 10
152.724
 20
5.30821
 30
0.0
 11
152.415
 21
5.25861
 31
0.0
  0
LINE
  8
0
 62
     0
 10
102.872
 20
5.25861
 30
0.0
 11
102.593
 21
5.11665
 31
0.0
  0
LINE
  8
0
 62
     0
 10
102.593
 20
5.11665
 30
0.0
 11
102.372
 21
4.89617
 31
0.0
  0
LINE
  8
0
 62
     0
 10
102.372
 20
4.89617
 30
0.0
 11
102.23
 21
4.61779
 31
0.0
  0
LINE
  8
0
 62
     0
 10
102.23
 20
4.61779
 30
0.0
 11
102.181
 21
4.30773
 31
0.0
  0
LINE
  8
0
 62
     0
 10
102.181
 20
4.30773
 30
0.0
 11
102.23
 21
3.99905
 31
0.0
  0
LINE
  8
0
 62
     0
 10
102.23
 20
3.99905
 30
0.0
 11
102.372
 21
3.72071
 31
0.0
  0
LINE
  8
0
 62
     0
 10
102.372
 20
3.72071
 30
0.0
 11
102.593
 21
3.49884
 31
0.0
  0
LINE
  8
0
 62
     0
 10
102.593
 20
3.49884
 30
0.0
 11
102.872
 21
3.3569
 31
0.0
  0
LINE
  8
0
 62
     0
 10
102.872
 20
3.3569
 30
0.0
 11
103.182
 21
3.30867
 31
0.0
  0
LINE
  8
0
 62
     0
 10
103.182
 20
3.30867
 30
0.0
 11
103.491
 21
3.3569
 31
0.0
  0
LINE
  8
0
 62
     0
 10
103.491
 20
3.3569
 30
0.0
 11
103.769
 21
3.49884
 31
0.0
  0
LINE
  8
0
 62
     0
 10
103.769
 20
3.49884
 30
0.0
 11
103.991
 21
3.72071
 31
0.0
  0
LINE
  8
0
 62
     0
 10
103.991
 20
3.72071
 30
0.0
 11
104.133
 21
3.99905
 31
0.0
  0
LINE
  8
0
 62
     0
 10
104.133
 20
3.99905
 30
0.0
 11
104.181
 21
4.30773
 31
0.0
  0
LINE
  8
0
 62
     0
 10
104.181
 20
4.30773
 30
0.0
 11
104.133
 21
4.61779
 31
0.0
  0
LINE
  8
0
 62
     0
 10
104.133
 20
4.61779
 30
0.0
 11
103.991
 21
4.89617
 31
0.0
  0
LINE
  8
0
 62
     0
 10
103.991
 20
4.89617
 30
0.0
 11
103.769
 21
5.11665
 31
0.0
  0
LINE
  8
0
 62
     0
 10
103.769
 20
5.11665
 30
0.0
 11
103.491
 21
5.25861
 31
0.0
  0
LINE
  8
0
 62
     0
 10
103.491
 20
5.25861
 30
0.0
 11
103.182
 21
5.30821
 31
0.0
  0
LINE
  8
0
 62
     0
 10
103.182
 20
5.30821
 30
0.0
 11
102.872
 21
5.25861
 31
0.0
  0
LINE
  8
0
 62
     0
 10
53.3287
 20
5.25861
 30
0.0
 11
53.0504
 21
5.11665
 31
0.0
  0
LINE
  8
0
 62
     0
 10
53.0504
 20
5.11665
 30
0.0
 11
52.8285
 21
4.89617
 31
0.0
  0
LINE
  8
0
 62
     0
 10
52.8285
 20
4.89617
 30
0.0
 11
52.6867
 21
4.61779
 31
0.0
  0
LINE
  8
0
 62
     0
 10
52.6867
 20
4.61779
 30
0.0
 11
52.6383
 21
4.30773
 31
0.0
  0
LINE
  8
0
 62
     0
 10
52.6383
 20
4.30773
 30
0.0
 11
52.6867
 21
3.99905
 31
0.0
  0
LINE
  8
0
 62
     0
 10
52.6867
 20
3.99905
 30
0.0
 11
52.8285
 21
3.72071
 31
0.0
  0
LINE
  8
0
 62
     0
 10
52.8285
 20
3.72071
 30
0.0
 11
53.0504
 21
3.49884
 31
0.0
  0
LINE
  8
0
 62
     0
 10
53.0504
 20
3.49884
 30
0.0
 11
53.3287
 21
3.3569
 31
0.0
  0
LINE
  8
0
 62
     0
 10
53.3287
 20
3.3569
 30
0.0
 11
53.6388
 21
3.30867
 31
0.0
  0
LINE
  8
0
 62
     0
 10
53.6388
 20
3.30867
 30
0.0
 11
53.9475
 21
3.3569
 31
0.0
  0
LINE
  8
0
 62
     0
 10
53.9475
 20
3.3569
 30
0.0
 11
54.2258
 21
3.49884
 31
0.0
  0
LINE
  8
0
 62
     0
 10
54.2258
 20
3.49884
 30
0.0
 11
54.4477
 21
3.72071
 31
0.0
  0
LINE
  8
0
 62
     0
 10
54.4477
 20
3.72071
 30
0.0
 11
54.5895
 21
3.99905
 31
0.0
  0
LINE
  8
0
 62
     0
 10
54.5895
 20
3.99905
 30
0.0
 11
54.6379
 21
4.30773
 31
0.0
  0
LINE
  8
0
 62
     0
 10
54.6379
 20
4.30773
 30
0.0
 11
54.5895
 21
4.61779
 31
0.0
  0
LINE
  8
0
 62
     0
 10
54.5895
 20
4.61779
 30
0.0
 11
54.4477
 21
4.89617
 31
0.0
  0
LINE
  8
0
 62
     0
 10
54.4477
 20
4.89617
 30
0.0
 11
54.2258
 21
5.11665
 31
0.0
  0
LINE
  8
0
 62
     0
 10
54.2258
 20
5.11665
 30
0.0
 11
53.9475
 21
5.25861
 31
0.0
  0
LINE
  8
0
 62
     0
 10
53.9475
 20
5.25861
 30
0.0
 11
53.6388
 21
5.30821
 31
0.0
  0
LINE
  8
0
 62
     0
 10
53.6388
 20
5.30821
 30
0.0
 11
53.3287
 21
5.25861
 31
0.0
  0
LINE
  8
0
 62
     0
 10
3.78548
 20
5.25861
 30
0.0
 11
3.50711
 21
5.11665
 31
0.0
  0
LINE
  8
0
 62
     0
 10
3.50711
 20
5.11665
 30
0.0
 11
3.28386
 21
4.89617
 31
0.0
  0
LINE
  8
0
 62
     0
 10
3.28386
 20
4.89617
 30
0.0
 11
3.14331
 21
4.61779
 31
0.0
  0
LINE
  8
0
 62
     0
 10
3.14331
 20
4.61779
 30
0.0
 11
3.09507
 21
4.30773
 31
0.0
  0
LINE
  8
0
 62
     0
 10
3.09507
 20
4.30773
 30
0.0
 11
3.14331
 21
3.99905
 31
0.0
  0
LINE
  8
0
 62
     0
 10
3.14331
 20
3.99905
 30
0.0
 11
3.28386
 21
3.72071
 31
0.0
  0
LINE
  8
0
 62
     0
 10
3.28386
 20
3.72071
 30
0.0
 11
3.50711
 21
3.49884
 31
0.0
  0
LINE
  8
0
 62
     0
 10
3.50711
 20
3.49884
 30
0.0
 11
3.78548
 21
3.3569
 31
0.0
  0
LINE
  8
0
 62
     0
 10
3.78548
 20
3.3569
 30
0.0
 11
4.09554
 21
3.30867
 31
0.0
  0
LINE
  8
0
 62
     0
 10
4.09554
 20
3.30867
 30
0.0
 11
4.40422
 21
3.3569
 31
0.0
  0
LINE
  8
0
 62
     0
 10
4.40422
 20
3.3569
 30
0.0
 11
4.68256
 21
3.49884
 31
0.0
  0
LINE
  8
0
 62
     0
 10
4.68256
 20
3.49884
 30
0.0
 11
4.90442
 21
3.72071
 31
0.0
  0
LINE
  8
0
 62
     0
 10
4.90442
 20
3.72071
 30
0.0
 11
5.04638
 21
3.99905
 31
0.0
  0
LINE
  8
0
 62
     0
 10
5.04638
 20
3.99905
 30
0.0
 11
5.09598
 21
4.30773
 31
0.0
  0
LINE
  8
0
 62
     0
 10
5.09598
 20
4.30773
 30
0.0
 11
5.04638
 21
4.61779
 31
0.0
  0
LINE
  8
0
 62
     0
 10
5.04638
 20
4.61779
 30
0.0
 11
4.90442
 21
4.89617
 31
0.0
  0
LINE
  8
0
 62
     0
 10
4.90442
 20
4.89617
 30
0.0
 11
4.68256
 21
5.11665
 31
0.0
  0
LINE
  8
0
 62
     0
 10
4.68256
 20
5.11665
 30
0.0
 11
4.40422
 21
5.25861
 31
0.0
  0
LINE
  8
0
 62
     0
 10
4.40422
 20
5.25861
 30
0.0
 11
4.09554
 21
5.30821
 31
0.0
  0
LINE
  8
0
 62
     0
 10
4.09554
 20
5.30821
 30
0.0
 11
3.78548
 21
5.25861
 31
0.0
  0
LINE
  8
0
 62
     0
 10
350.587
 20
47.6141
 30
0.0
 11
350.308
 21
47.4719
 31
0.0
  0
LINE
  8
0
 62
     0
 10
350.308
 20
47.4719
 30
0.0
 11
350.086
 21
47.2504
 31
0.0
  0
LINE
  8
0
 62
     0
 10
350.086
 20
47.2504
 30
0.0
 11
349.945
 21
46.9717
 31
0.0
  0
LINE
  8
0
 62
     0
 10
349.945
 20
46.9717
 30
0.0
 11
349.896
 21
46.6619
 31
0.0
  0
LINE
  8
0
 62
     0
 10
349.896
 20
46.6619
 30
0.0
 11
349.945
 21
46.3532
 31
0.0
  0
LINE
  8
0
 62
     0
 10
349.945
 20
46.3532
 30
0.0
 11
350.086
 21
46.0745
 31
0.0
  0
LINE
  8
0
 62
     0
 10
350.086
 20
46.0745
 30
0.0
 11
350.308
 21
45.853
 31
0.0
  0
LINE
  8
0
 62
     0
 10
350.308
 20
45.853
 30
0.0
 11
350.587
 21
45.7108
 31
0.0
  0
LINE
  8
0
 62
     0
 10
350.587
 20
45.7108
 30
0.0
 11
350.897
 21
45.6629
 31
0.0
  0
LINE
  8
0
 62
     0
 10
350.897
 20
45.6629
 30
0.0
 11
351.205
 21
45.7108
 31
0.0
  0
LINE
  8
0
 62
     0
 10
351.205
 20
45.7108
 30
0.0
 11
351.484
 21
45.853
 31
0.0
  0
LINE
  8
0
 62
     0
 10
351.484
 20
45.853
 30
0.0
 11
351.706
 21
46.0745
 31
0.0
  0
LINE
  8
0
 62
     0
 10
351.706
 20
46.0745
 30
0.0
 11
351.847
 21
46.3532
 31
0.0
  0
LINE
  8
0
 62
     0
 10
351.847
 20
46.3532
 30
0.0
 11
351.896
 21
46.6619
 31
0.0
  0
LINE
  8
0
 62
     0
 10
351.896
 20
46.6619
 30
0.0
 11
351.847
 21
46.9717
 31
0.0
  0
LINE
  8
0
 62
     0
 10
351.847
 20
46.9717
 30
0.0
 11
351.706
 21
47.2504
 31
0.0
  0
LINE
  8
0
 62
     0
 10
351.706
 20
47.2504
 30
0.0
 11
351.484
 21
47.4719
 31
0.0
  0
LINE
  8
0
 62
     0
 10
351.484
 20
47.4719
 30
0.0
 11
351.205
 21
47.6141
 31
0.0
  0
LINE
  8
0
 62
     0
 10
351.205
 20
47.6141
 30
0.0
 11
350.897
 21
47.662
 31
0.0
  0
LINE
  8
0
 62
     0
 10
350.897
 20
47.662
 30
0.0
 11
350.587
 21
47.6141
 31
0.0
  0
LINE
  8
0
 62
     0
 10
3.78548
 20
47.6141
 30
0.0
 11
3.50711
 21
47.4719
 31
0.0
  0
LINE
  8
0
 62
     0
 10
3.50711
 20
47.4719
 30
0.0
 11
3.28386
 21
47.2504
 31
0.0
  0
LINE
  8
0
 62
     0
 10
3.28386
 20
47.2504
 30
0.0
 11
3.14331
 21
46.9717
 31
0.0
  0
LINE
  8
0
 62
     0
 10
3.14331
 20
46.9717
 30
0.0
 11
3.09507
 21
46.6619
 31
0.0
  0
LINE
  8
0
 62
     0
 10
3.09507
 20
46.6619
 30
0.0
 11
3.14331
 21
46.3532
 31
0.0
  0
LINE
  8
0
 62
     0
 10
3.14331
 20
46.3532
 30
0.0
 11
3.28386
 21
46.0745
 31
0.0
  0
LINE
  8
0
 62
     0
 10
3.28386
 20
46.0745
 30
0.0
 11
3.50711
 21
45.853
 31
0.0
  0
LINE
  8
0
 62
     0
 10
3.50711
 20
45.853
 30
0.0
 11
3.78548
 21
45.7108
 31
0.0
  0
LINE
  8
0
 62
     0
 10
3.78548
 20
45.7108
 30
0.0
 11
4.09554
 21
45.6629
 31
0.0
  0
LINE
  8
0
 62
     0
 10
4.09554
 20
45.6629
 30
0.0
 11
4.40422
 21
45.7108
 31
0.0
  0
LINE
  8
0
 62
     0
 10
4.40422
 20
45.7108
 30
0.0
 11
4.68256
 21
45.853
 31
0.0
  0
LINE
  8
0
 62
     0
 10
4.68256
 20
45.853
 30
0.0
 11
4.90442
 21
46.0745
 31
0.0
  0
LINE
  8
0
 62
     0
 10
4.90442
 20
46.0745
 30
0.0
 11
5.04638
 21
46.3532
 31
0.0
  0
LINE
  8
0
 62
     0
 10
5.04638
 20
46.3532
 30
0.0
 11
5.09598
 21
46.6619
 31
0.0
  0
LINE
  8
0
 62
     0
 10
5.09598
 20
46.6619
 30
0.0
 11
5.04638
 21
46.9717
 31
0.0
  0
LINE
  8
0
 62
     0
 10
5.04638
 20
46.9717
 30
0.0
 11
4.90442
 21
47.2504
 31
0.0
  0
LINE
  8
0
 62
     0
 10
4.90442
 20
47.2504
 30
0.0
 11
4.68256
 21
47.4719
 31
0.0
  0
LINE
  8
0
 62
     0
 10
4.68256
 20
47.4719
 30
0.0
 11
4.40422
 21
47.6141
 31
0.0
  0
LINE
  8
0
 62
     0
 10
4.40422
 20
47.6141
 30
0.0
 11
4.09554
 21
47.662
 31
0.0
  0
LINE
  8
0
 62
     0
 10
4.09554
 20
47.662
 30
0.0
 11
3.78548
 21
47.6141
 31
0.0
  0
LINE
  8
0
 62
     0
 10
350.587
 20
89.9679
 30
0.0
 11
350.308
 21
89.826
 31
0.0
  0
LINE
  8
0
 62
     0
 10
350.308
 20
89.826
 30
0.0
 11
350.086
 21
89.6056
 31
0.0
  0
LINE
  8
0
 62
     0
 10
350.086
 20
89.6056
 30
0.0
 11
349.945
 21
89.3258
 31
0.0
  0
LINE
  8
0
 62
     0
 10
349.945
 20
89.3258
 30
0.0
 11
349.896
 21
89.0171
 31
0.0
  0
LINE
  8
0
 62
     0
 10
349.896
 20
89.0171
 30
0.0
 11
349.945
 21
88.7084
 31
0.0
  0
LINE
  8
0
 62
     0
 10
349.945
 20
88.7084
 30
0.0
 11
350.086
 21
88.4287
 31
0.0
  0
LINE
  8
0
 62
     0
 10
350.086
 20
88.4287
 30
0.0
 11
350.308
 21
88.2082
 31
0.0
  0
LINE
  8
0
 62
     0
 10
350.308
 20
88.2082
 30
0.0
 11
350.587
 21
88.0664
 31
0.0
  0
LINE
  8
0
 62
     0
 10
350.587
 20
88.0664
 30
0.0
 11
350.897
 21
88.0166
 31
0.0
  0
LINE
  8
0
 62
     0
 10
350.897
 20
88.0166
 30
0.0
 11
351.205
 21
88.0664
 31
0.0
  0
LINE
  8
0
 62
     0
 10
351.205
 20
88.0664
 30
0.0
 11
351.484
 21
88.2082
 31
0.0
  0
LINE
  8
0
 62
     0
 10
351.484
 20
88.2082
 30
0.0
 11
351.706
 21
88.4287
 31
0.0
  0
LINE
  8
0
 62
     0
 10
351.706
 20
88.4287
 30
0.0
 11
351.847
 21
88.7084
 31
0.0
  0
LINE
  8
0
 62
     0
 10
351.847
 20
88.7084
 30
0.0
 11
351.896
 21
89.0171
 31
0.0
  0
LINE
  8
0
 62
     0
 10
351.896
 20
89.0171
 30
0.0
 11
351.847
 21
89.3258
 31
0.0
  0
LINE
  8
0
 62
     0
 10
351.847
 20
89.3258
 30
0.0
 11
351.706
 21
89.6056
 31
0.0
  0
LINE
  8
0
 62
     0
 10
351.706
 20
89.6056
 30
0.0
 11
351.484
 21
89.826
 31
0.0
  0
LINE
  8
0
 62
     0
 10
351.484
 20
89.826
 30
0.0
 11
351.205
 21
89.9679
 31
0.0
  0
LINE
  8
0
 62
     0
 10
351.205
 20
89.9679
 30
0.0
 11
350.897
 21
90.0176
 31
0.0
  0
LINE
  8
0
 62
     0
 10
350.897
 20
90.0176
 30
0.0
 11
350.587
 21
89.9679
 31
0.0
  0
LINE
  8
0
 62
     0
 10
3.78548
 20
89.9679
 30
0.0
 11
3.50711
 21
89.826
 31
0.0
  0
LINE
  8
0
 62
     0
 10
3.50711
 20
89.826
 30
0.0
 11
3.28386
 21
89.6056
 31
0.0
  0
LINE
  8
0
 62
     0
 10
3.28386
 20
89.6056
 30
0.0
 11
3.14331
 21
89.3258
 31
0.0
  0
LINE
  8
0
 62
     0
 10
3.14331
 20
89.3258
 30
0.0
 11
3.09507
 21
89.0171
 31
0.0
  0
LINE
  8
0
 62
     0
 10
3.09507
 20
89.0171
 30
0.0
 11
3.14331
 21
88.7084
 31
0.0
  0
LINE
  8
0
 62
     0
 10
3.14331
 20
88.7084
 30
0.0
 11
3.28386
 21
88.4287
 31
0.0
  0
LINE
  8
0
 62
     0
 10
3.28386
 20
88.4287
 30
0.0
 11
3.50711
 21
88.2082
 31
0.0
  0
LINE
  8
0
 62
     0
 10
3.50711
 20
88.2082
 30
0.0
 11
3.78548
 21
88.0664
 31
0.0
  0
LINE
  8
0
 62
     0
 10
3.78548
 20
88.0664
 30
0.0
 11
4.09554
 21
88.0166
 31
0.0
  0
LINE
  8
0
 62
     0
 10
4.09554
 20
88.0166
 30
0.0
 11
4.40422
 21
88.0664
 31
0.0
  0
LINE
  8
0
 62
     0
 10
4.40422
 20
88.0664
 30
0.0
 11
4.68256
 21
88.2082
 31
0.0
  0
LINE
  8
0
 62
     0
 10
4.68256
 20
88.2082
 30
0.0
 11
4.90442
 21
88.4287
 31
0.0
  0
LINE
  8
0
 62
     0
 10
4.90442
 20
88.4287
 30
0.0
 11
5.04638
 21
88.7084
 31
0.0
  0
LINE
  8
0
 62
     0
 10
5.04638
 20
88.7084
 30
0.0
 11
5.09598
 21
89.0171
 31
0.0
  0
LINE
  8
0
 62
     0
 10
5.09598
 20
89.0171
 30
0.0
 11
5.04638
 21
89.3258
 31
0.0
  0
LINE
  8
0
 62
     0
 10
5.04638
 20
89.3258
 30
0.0
 11
4.90442
 21
89.6056
 31
0.0
  0
LINE
  8
0
 62
     0
 10
4.90442
 20
89.6056
 30
0.0
 11
4.68256
 21
89.826
 31
0.0
  0
LINE
  8
0
 62
     0
 10
4.68256
 20
89.826
 30
0.0
 11
4.40422
 21
89.9679
 31
0.0
  0
LINE
  8
0
 62
     0
 10
4.40422
 20
89.9679
 30
0.0
 11
4.09554
 21
90.0176
 31
0.0
  0
LINE
  8
0
 62
     0
 10
4.09554
 20
90.0176
 30
0.0
 11
3.78548
 21
89.9679
 31
0.0
  0
LINE
  8
0
 62
     0
 10
53.3287
 20
132.323
 30
0.0
 11
53.0504
 21
132.183
 31
0.0
  0
LINE
  8
0
 62
     0
 10
53.0504
 20
132.183
 30
0.0
 11
52.8285
 21
131.96
 31
0.0
  0
LINE
  8
0
 62
     0
 10
52.8285
 20
131.96
 30
0.0
 11
52.6867
 21
131.681
 31
0.0
  0
LINE
  8
0
 62
     0
 10
52.6867
 20
131.681
 30
0.0
 11
52.6383
 21
131.371
 31
0.0
  0
LINE
  8
0
 62
     0
 10
52.6383
 20
131.371
 30
0.0
 11
52.6867
 21
131.063
 31
0.0
  0
LINE
  8
0
 62
     0
 10
52.6867
 20
131.063
 30
0.0
 11
52.8285
 21
130.784
 31
0.0
  0
LINE
  8
0
 62
     0
 10
52.8285
 20
130.784
 30
0.0
 11
53.0504
 21
130.562
 31
0.0
  0
LINE
  8
0
 62
     0
 10
53.0504
 20
130.562
 30
0.0
 11
53.3287
 21
130.42
 31
0.0
  0
LINE
  8
0
 62
     0
 10
53.3287
 20
130.42
 30
0.0
 11
53.6388
 21
130.371
 31
0.0
  0
LINE
  8
0
 62
     0
 10
53.6388
 20
130.371
 30
0.0
 11
53.9475
 21
130.42
 31
0.0
  0
LINE
  8
0
 62
     0
 10
53.9475
 20
130.42
 30
0.0
 11
54.2258
 21
130.562
 31
0.0
  0
LINE
  8
0
 62
     0
 10
54.2258
 20
130.562
 30
0.0
 11
54.4477
 21
130.784
 31
0.0
  0
LINE
  8
0
 62
     0
 10
54.4477
 20
130.784
 30
0.0
 11
54.5895
 21
131.063
 31
0.0
  0
LINE
  8
0
 62
     0
 10
54.5895
 20
131.063
 30
0.0
 11
54.6379
 21
131.371
 31
0.0
  0
LINE
  8
0
 62
     0
 10
54.6379
 20
131.371
 30
0.0
 11
54.5895
 21
131.681
 31
0.0
  0
LINE
  8
0
 62
     0
 10
54.5895
 20
131.681
 30
0.0
 11
54.4477
 21
131.96
 31
0.0
  0
LINE
  8
0
 62
     0
 10
54.4477
 20
131.96
 30
0.0
 11
54.2258
 21
132.183
 31
0.0
  0
LINE
  8
0
 62
     0
 10
54.2258
 20
132.183
 30
0.0
 11
53.9475
 21
132.323
 31
0.0
  0
LINE
  8
0
 62
     0
 10
53.9475
 20
132.323
 30
0.0
 11
53.6388
 21
132.372
 31
0.0
  0
LINE
  8
0
 62
     0
 10
53.6388
 20
132.372
 30
0.0
 11
53.3287
 21
132.323
 31
0.0
  0
LINE
  8
0
 62
     0
 10
102.872
 20
132.323
 30
0.0
 11
102.593
 21
132.183
 31
0.0
  0
LINE
  8
0
 62
     0
 10
102.593
 20
132.183
 30
0.0
 11
102.372
 21
131.96
 31
0.0
  0
LINE
  8
0
 62
     0
 10
102.372
 20
131.96
 30
0.0
 11
102.23
 21
131.681
 31
0.0
  0
LINE
  8
0
 62
     0
 10
102.23
 20
131.681
 30
0.0
 11
102.181
 21
131.371
 31
0.0
  0
LINE
  8
0
 62
     0
 10
102.181
 20
131.371
 30
0.0
 11
102.23
 21
131.063
 31
0.0
  0
LINE
  8
0
 62
     0
 10
102.23
 20
131.063
 30
0.0
 11
102.372
 21
130.784
 31
0.0
  0
LINE
  8
0
 62
     0
 10
102.372
 20
130.784
 30
0.0
 11
102.593
 21
130.562
 31
0.0
  0
LINE
  8
0
 62
     0
 10
102.593
 20
130.562
 30
0.0
 11
102.872
 21
130.42
 31
0.0
  0
LINE
  8
0
 62
     0
 10
102.872
 20
130.42
 30
0.0
 11
103.182
 21
130.371
 31
0.0
  0
LINE
  8
0
 62
     0
 10
103.182
 20
130.371
 30
0.0
 11
103.491
 21
130.42
 31
0.0
  0
LINE
  8
0
 62
     0
 10
103.491
 20
130.42
 30
0.0
 11
103.769
 21
130.562
 31
0.0
  0
LINE
  8
0
 62
     0
 10
103.769
 20
130.562
 30
0.0
 11
103.991
 21
130.784
 31
0.0
  0
LINE
  8
0
 62
     0
 10
103.991
 20
130.784
 30
0.0
 11
104.133
 21
131.063
 31
0.0
  0
LINE
  8
0
 62
     0
 10
104.133
 20
131.063
 30
0.0
 11
104.181
 21
131.371
 31
0.0
  0
LINE
  8
0
 62
     0
 10
104.181
 20
131.371
 30
0.0
 11
104.133
 21
131.681
 31
0.0
  0
LINE
  8
0
 62
     0
 10
104.133
 20
131.681
 30
0.0
 11
103.991
 21
131.96
 31
0.0
  0
LINE
  8
0
 62
     0
 10
103.991
 20
131.96
 30
0.0
 11
103.769
 21
132.183
 31
0.0
  0
LINE
  8
0
 62
     0
 10
103.769
 20
132.183
 30
0.0
 11
103.491
 21
132.323
 31
0.0
  0
LINE
  8
0
 62
     0
 10
103.491
 20
132.323
 30
0.0
 11
103.182
 21
132.372
 31
0.0
  0
LINE
  8
0
 62
     0
 10
103.182
 20
132.372
 30
0.0
 11
102.872
 21
132.323
 31
0.0
  0
LINE
  8
0
 62
     0
 10
152.415
 20
132.323
 30
0.0
 11
152.137
 21
132.183
 31
0.0
  0
LINE
  8
0
 62
     0
 10
152.137
 20
132.183
 30
0.0
 11
151.915
 21
131.96
 31
0.0
  0
LINE
  8
0
 62
     0
 10
151.915
 20
131.96
 30
0.0
 11
151.773
 21
131.681
 31
0.0
  0
LINE
  8
0
 62
     0
 10
151.773
 20
131.681
 30
0.0
 11
151.725
 21
131.371
 31
0.0
  0
LINE
  8
0
 62
     0
 10
151.725
 20
131.371
 30
0.0
 11
151.773
 21
131.063
 31
0.0
  0
LINE
  8
0
 62
     0
 10
151.773
 20
131.063
 30
0.0
 11
151.915
 21
130.784
 31
0.0
  0
LINE
  8
0
 62
     0
 10
151.915
 20
130.784
 30
0.0
 11
152.137
 21
130.562
 31
0.0
  0
LINE
  8
0
 62
     0
 10
152.137
 20
130.562
 30
0.0
 11
152.415
 21
130.42
 31
0.0
  0
LINE
  8
0
 62
     0
 10
152.415
 20
130.42
 30
0.0
 11
152.724
 21
130.371
 31
0.0
  0
LINE
  8
0
 62
     0
 10
152.724
 20
130.371
 30
0.0
 11
153.034
 21
130.42
 31
0.0
  0
LINE
  8
0
 62
     0
 10
153.034
 20
130.42
 30
0.0
 11
153.311
 21
130.562
 31
0.0
  0
LINE
  8
0
 62
     0
 10
153.311
 20
130.562
 30
0.0
 11
153.534
 21
130.784
 31
0.0
  0
LINE
  8
0
 62
     0
 10
153.534
 20
130.784
 30
0.0
 11
153.676
 21
131.063
 31
0.0
  0
LINE
  8
0
 62
     0
 10
153.676
 20
131.063
 30
0.0
 11
153.724
 21
131.371
 31
0.0
  0
LINE
  8
0
 62
     0
 10
153.724
 20
131.371
 30
0.0
 11
153.676
 21
131.681
 31
0.0
  0
LINE
  8
0
 62
     0
 10
153.676
 20
131.681
 30
0.0
 11
153.534
 21
131.96
 31
0.0
  0
LINE
  8
0
 62
     0
 10
153.534
 20
131.96
 30
0.0
 11
153.311
 21
132.183
 31
0.0
  0
LINE
  8
0
 62
     0
 10
153.311
 20
132.183
 30
0.0
 11
153.034
 21
132.323
 31
0.0
  0
LINE
  8
0
 62
     0
 10
153.034
 20
132.323
 30
0.0
 11
152.724
 21
132.372
 31
0.0
  0
LINE
  8
0
 62
     0
 10
152.724
 20
132.372
 30
0.0
 11
152.415
 21
132.323
 31
0.0
  0
LINE
  8
0
 62
     0
 10
201.957
 20
132.323
 30
0.0
 11
201.68
 21
132.183
 31
0.0
  0
LINE
  8
0
 62
     0
 10
201.68
 20
132.183
 30
0.0
 11
201.458
 21
131.96
 31
0.0
  0
LINE
  8
0
 62
     0
 10
201.458
 20
131.96
 30
0.0
 11
201.315
 21
131.681
 31
0.0
  0
LINE
  8
0
 62
     0
 10
201.315
 20
131.681
 30
0.0
 11
201.268
 21
131.371
 31
0.0
  0
LINE
  8
0
 62
     0
 10
201.268
 20
131.371
 30
0.0
 11
201.315
 21
131.063
 31
0.0
  0
LINE
  8
0
 62
     0
 10
201.315
 20
131.063
 30
0.0
 11
201.458
 21
130.784
 31
0.0
  0
LINE
  8
0
 62
     0
 10
201.458
 20
130.784
 30
0.0
 11
201.68
 21
130.562
 31
0.0
  0
LINE
  8
0
 62
     0
 10
201.68
 20
130.562
 30
0.0
 11
201.957
 21
130.42
 31
0.0
  0
LINE
  8
0
 62
     0
 10
201.957
 20
130.42
 30
0.0
 11
202.267
 21
130.371
 31
0.0
  0
LINE
  8
0
 62
     0
 10
202.267
 20
130.371
 30
0.0
 11
202.577
 21
130.42
 31
0.0
  0
LINE
  8
0
 62
     0
 10
202.577
 20
130.42
 30
0.0
 11
202.854
 21
130.562
 31
0.0
  0
LINE
  8
0
 62
     0
 10
202.854
 20
130.562
 30
0.0
 11
203.076
 21
130.784
 31
0.0
  0
LINE
  8
0
 62
     0
 10
203.076
 20
130.784
 30
0.0
 11
203.218
 21
131.063
 31
0.0
  0
LINE
  8
0
 62
     0
 10
203.218
 20
131.063
 30
0.0
 11
203.267
 21
131.371
 31
0.0
  0
LINE
  8
0
 62
     0
 10
203.267
 20
131.371
 30
0.0
 11
203.218
 21
131.681
 31
0.0
  0
LINE
  8
0
 62
     0
 10
203.218
 20
131.681
 30
0.0
 11
203.076
 21
131.96
 31
0.0
  0
LINE
  8
0
 62
     0
 10
203.076
 20
131.96
 30
0.0
 11
202.854
 21
132.183
 31
0.0
  0
LINE
  8
0
 62
     0
 10
202.854
 20
132.183
 30
0.0
 11
202.577
 21
132.323
 31
0.0
  0
LINE
  8
0
 62
     0
 10
202.577
 20
132.323
 30
0.0
 11
202.267
 21
132.372
 31
0.0
  0
LINE
  8
0
 62
     0
 10
202.267
 20
132.372
 30
0.0
 11
201.957
 21
132.323
 31
0.0
  0
LINE
  8
0
 62
     0
 10
251.499
 20
132.323
 30
0.0
 11
251.222
 21
132.183
 31
0.0
  0
LINE
  8
0
 62
     0
 10
251.222
 20
132.183
 30
0.0
 11
251
 21
131.96
 31
0.0
  0
LINE
  8
0
 62
     0
 10
251
 20
131.96
 30
0.0
 11
250.858
 21
131.681
 31
0.0
  0
LINE
  8
0
 62
     0
 10
250.858
 20
131.681
 30
0.0
 11
250.81
 21
131.371
 31
0.0
  0
LINE
  8
0
 62
     0
 10
250.81
 20
131.371
 30
0.0
 11
250.858
 21
131.063
 31
0.0
  0
LINE
  8
0
 62
     0
 10
250.858
 20
131.063
 30
0.0
 11
251
 21
130.784
 31
0.0
  0
LINE
  8
0
 62
     0
 10
251
 20
130.784
 30
0.0
 11
251.222
 21
130.562
 31
0.0
  0
LINE
  8
0
 62
     0
 10
251.222
 20
130.562
 30
0.0
 11
251.499
 21
130.42
 31
0.0
  0
LINE
  8
0
 62
     0
 10
251.499
 20
130.42
 30
0.0
 11
251.809
 21
130.371
 31
0.0
  0
LINE
  8
0
 62
     0
 10
251.809
 20
130.371
 30
0.0
 11
252.119
 21
130.42
 31
0.0
  0
LINE
  8
0
 62
     0
 10
252.119
 20
130.42
 30
0.0
 11
252.397
 21
130.562
 31
0.0
  0
LINE
  8
0
 62
     0
 10
252.397
 20
130.562
 30
0.0
 11
252.619
 21
130.784
 31
0.0
  0
LINE
  8
0
 62
     0
 10
252.619
 20
130.784
 30
0.0
 11
252.761
 21
131.063
 31
0.0
  0
LINE
  8
0
 62
     0
 10
252.761
 20
131.063
 30
0.0
 11
252.809
 21
131.371
 31
0.0
  0
LINE
  8
0
 62
     0
 10
252.809
 20
131.371
 30
0.0
 11
252.761
 21
131.681
 31
0.0
  0
LINE
  8
0
 62
     0
 10
252.761
 20
131.681
 30
0.0
 11
252.619
 21
131.96
 31
0.0
  0
LINE
  8
0
 62
     0
 10
252.619
 20
131.96
 30
0.0
 11
252.397
 21
132.183
 31
0.0
  0
LINE
  8
0
 62
     0
 10
252.397
 20
132.183
 30
0.0
 11
252.119
 21
132.323
 31
0.0
  0
LINE
  8
0
 62
     0
 10
252.119
 20
132.323
 30
0.0
 11
251.809
 21
132.372
 31
0.0
  0
LINE
  8
0
 62
     0
 10
251.809
 20
132.372
 30
0.0
 11
251.499
 21
132.323
 31
0.0
  0
LINE
  8
0
 62
     0
 10
301.044
 20
132.323
 30
0.0
 11
300.765
 21
132.183
 31
0.0
  0
LINE
  8
0
 62
     0
 10
300.765
 20
132.183
 30
0.0
 11
300.543
 21
131.96
 31
0.0
  0
LINE
  8
0
 62
     0
 10
300.543
 20
131.96
 30
0.0
 11
300.401
 21
131.681
 31
0.0
  0
LINE
  8
0
 62
     0
 10
300.401
 20
131.681
 30
0.0
 11
300.353
 21
131.371
 31
0.0
  0
LINE
  8
0
 62
     0
 10
300.353
 20
131.371
 30
0.0
 11
300.401
 21
131.063
 31
0.0
  0
LINE
  8
0
 62
     0
 10
300.401
 20
131.063
 30
0.0
 11
300.543
 21
130.784
 31
0.0
  0
LINE
  8
0
 62
     0
 10
300.543
 20
130.784
 30
0.0
 11
300.765
 21
130.562
 31
0.0
  0
LINE
  8
0
 62
     0
 10
300.765
 20
130.562
 30
0.0
 11
301.044
 21
130.42
 31
0.0
  0
LINE
  8
0
 62
     0
 10
301.044
 20
130.42
 30
0.0
 11
301.353
 21
130.371
 31
0.0
  0
LINE
  8
0
 62
     0
 10
301.353
 20
130.371
 30
0.0
 11
301.662
 21
130.42
 31
0.0
  0
LINE
  8
0
 62
     0
 10
301.662
 20
130.42
 30
0.0
 11
301.941
 21
130.562
 31
0.0
  0
LINE
  8
0
 62
     0
 10
301.941
 20
130.562
 30
0.0
 11
302.162
 21
130.784
 31
0.0
  0
LINE
  8
0
 62
     0
 10
302.162
 20
130.784
 30
0.0
 11
302.304
 21
131.063
 31
0.0
  0
LINE
  8
0
 62
     0
 10
302.304
 20
131.063
 30
0.0
 11
302.354
 21
131.371
 31
0.0
  0
LINE
  8
0
 62
     0
 10
302.354
 20
131.371
 30
0.0
 11
302.304
 21
131.681
 31
0.0
  0
LINE
  8
0
 62
     0
 10
302.304
 20
131.681
 30
0.0
 11
302.162
 21
131.96
 31
0.0
  0
LINE
  8
0
 62
     0
 10
302.162
 20
131.96
 30
0.0
 11
301.941
 21
132.183
 31
0.0
  0
LINE
  8
0
 62
     0
 10
301.941
 20
132.183
 30
0.0
 11
301.662
 21
132.323
 31
0.0
  0
LINE
  8
0
 62
     0
 10
301.662
 20
132.323
 30
0.0
 11
301.353
 21
132.372
 31
0.0
  0
LINE
  8
0
 62
     0
 10
301.353
 20
132.372
 30
0.0
 11
301.044
 21
132.323
 31
0.0
  0
LINE
  8
0
 62
     0
 10
350.587
 20
132.323
 30
0.0
 11
350.308
 21
132.183
 31
0.0
  0
LINE
  8
0
 62
     0
 10
350.308
 20
132.183
 30
0.0
 11
350.086
 21
131.96
 31
0.0
  0
LINE
  8
0
 62
     0
 10
350.086
 20
131.96
 30
0.0
 11
349.945
 21
131.681
 31
0.0
  0
LINE
  8
0
 62
     0
 10
349.945
 20
131.681
 30
0.0
 11
349.896
 21
131.371
 31
0.0
  0
LINE
  8
0
 62
     0
 10
349.896
 20
131.371
 30
0.0
 11
349.945
 21
131.063
 31
0.0
  0
LINE
  8
0
 62
     0
 10
349.945
 20
131.063
 30
0.0
 11
350.086
 21
130.784
 31
0.0
  0
LINE
  8
0
 62
     0
 10
350.086
 20
130.784
 30
0.0
 11
350.308
 21
130.562
 31
0.0
  0
LINE
  8
0
 62
     0
 10
350.308
 20
130.562
 30
0.0
 11
350.587
 21
130.42
 31
0.0
  0
LINE
  8
0
 62
     0
 10
350.587
 20
130.42
 30
0.0
 11
350.897
 21
130.371
 31
0.0
  0
LINE
  8
0
 62
     0
 10
350.897
 20
130.371
 30
0.0
 11
351.205
 21
130.42
 31
0.0
  0
LINE
  8
0
 62
     0
 10
351.205
 20
130.42
 30
0.0
 11
351.484
 21
130.562
 31
0.0
  0
LINE
  8
0
 62
     0
 10
351.484
 20
130.562
 30
0.0
 11
351.706
 21
130.784
 31
0.0
  0
LINE
  8
0
 62
     0
 10
351.706
 20
130.784
 30
0.0
 11
351.847
 21
131.063
 31
0.0
  0
LINE
  8
0
 62
     0
 10
351.847
 20
131.063
 30
0.0
 11
351.896
 21
131.371
 31
0.0
  0
LINE
  8
0
 62
     0
 10
351.896
 20
131.371
 30
0.0
 11
351.847
 21
131.681
 31
0.0
  0
LINE
  8
0
 62
     0
 10
351.847
 20
131.681
 30
0.0
 11
351.706
 21
131.96
 31
0.0
  0
LINE
  8
0
 62
     0
 10
351.706
 20
131.96
 30
0.0
 11
351.484
 21
132.183
 31
0.0
  0
LINE
  8
0
 62
     0
 10
351.484
 20
132.183
 30
0.0
 11
351.205
 21
132.323
 31
0.0
  0
LINE
  8
0
 62
     0
 10
351.205
 20
132.323
 30
0.0
 11
350.897
 21
132.372
 31
0.0
  0
LINE
  8
0
 62
     0
 10
350.897
 20
132.372
 30
0.0
 11
350.587
 21
132.323
 31
0.0
  0
LINE
  8
0
 62
     0
 10
3.78548
 20
132.323
 30
0.0
 11
3.50711
 21
132.183
 31
0.0
  0
LINE
  8
0
 62
     0
 10
3.50711
 20
132.183
 30
0.0
 11
3.28386
 21
131.96
 31
0.0
  0
LINE
  8
0
 62
     0
 10
3.28386
 20
131.96
 30
0.0
 11
3.14331
 21
131.681
 31
0.0
  0
LINE
  8
0
 62
     0
 10
3.14331
 20
131.681
 30
0.0
 11
3.09507
 21
131.371
 31
0.0
  0
LINE
  8
0
 62
     0
 10
3.09507
 20
131.371
 30
0.0
 11
3.14331
 21
131.063
 31
0.0
  0
LINE
  8
0
 62
     0
 10
3.14331
 20
131.063
 30
0.0
 11
3.28386
 21
130.784
 31
0.0
  0
LINE
  8
0
 62
     0
 10
3.28386
 20
130.784
 30
0.0
 11
3.50711
 21
130.562
 31
0.0
  0
LINE
  8
0
 62
     0
 10
3.50711
 20
130.562
 30
0.0
 11
3.78548
 21
130.42
 31
0.0
  0
LINE
  8
0
 62
     0
 10
3.78548
 20
130.42
 30
0.0
 11
4.09554
 21
130.371
 31
0.0
  0
LINE
  8
0
 62
     0
 10
4.09554
 20
130.371
 30
0.0
 11
4.40422
 21
130.42
 31
0.0
  0
LINE
  8
0
 62
     0
 10
4.40422
 20
130.42
 30
0.0
 11
4.68256
 21
130.562
 31
0.0
  0
LINE
  8
0
 62
     0
 10
4.68256
 20
130.562
 30
0.0
 11
4.90442
 21
130.784
 31
0.0
  0
LINE
  8
0
 62
     0
 10
4.90442
 20
130.784
 30
0.0
 11
5.04638
 21
131.063
 31
0.0
  0
LINE
  8
0
 62
     0
 10
5.04638
 20
131.063
 30
0.0
 11
5.09598
 21
131.371
 31
0.0
  0
LINE
  8
0
 62
     0
 10
5.09598
 20
131.371
 30
0.0
 11
5.04638
 21
131.681
 31
0.0
  0
LINE
  8
0
 62
     0
 10
5.04638
 20
131.681
 30
0.0
 11
4.90442
 21
131.96
 31
0.0
  0
LINE
  8
0
 62
     0
 10
4.90442
 20
131.96
 30
0.0
 11
4.68256
 21
132.183
 31
0.0
  0
LINE
  8
0
 62
     0
 10
4.68256
 20
132.183
 30
0.0
 11
4.40422
 21
132.323
 31
0.0
  0
LINE
  8
0
 62
     0
 10
4.40422
 20
132.323
 30
0.0
 11
4.09554
 21
132.372
 31
0.0
  0
LINE
  8
0
 62
     0
 10
4.09554
 20
132.372
 30
0.0
 11
3.78548
 21
132.323
 31
0.0
  0
ENDSEC
  0
EOF
